<?xml version="1.0" encoding="utf-8"?>
<!-- Generator: Adobe Illustrator 16.0.3, SVG Export Plug-In . SVG Version: 6.00 Build 0)  -->
<!DOCTYPE svg PUBLIC "-//W3C//DTD SVG 1.1//EN" "http://www.w3.org/Graphics/SVG/1.1/DTD/svg11.dtd">
<svg version="1.1" xmlns="http://www.w3.org/2000/svg" xmlns:xlink="http://www.w3.org/1999/xlink" x="0px" y="0px" width="120px"
	 height="120px" viewBox="0 0 120 120" enable-background="new 0 0 120 120" xml:space="preserve">
<g id="Capa_1">
</g>
<g id="Capa_2">
</g>
<g id="Capa_3">
</g>
<g id="Capa_4">
</g>
<g id="Capa_5">
</g>
<g id="Capa_6">
</g>
<g id="Capa_7">
	<path fill="#BE8CD2" d="M120,108c0,6.627-5.373,12-12,12H12c-6.627,0-12-5.373-12-12V12C0,5.373,5.373,0,12,0h96
		c6.627,0,12,5.373,12,12V108z"/>
	<g id="Social">
		<g id="GitHub">
			<path fill="#ECF0F1" d="M54.186,18.981c28.344-3.634,52.69,20.349,49.057,49.056c-2.544,19.259-18.169,35.247-37.428,37.427
				c-28.344,3.635-52.69-20.349-49.056-49.055C19.302,37.15,34.927,21.525,54.186,18.981z"/>
			<path fill="#9B59B6" d="M48.008,103.284V89.112c-2.18,0.363-3.633,0.363-4.36,0.363c-4.36,0-7.63-2.18-9.447-6.177
				c-0.726-1.454-1.453-2.907-2.181-3.997c-0.362-0.364-0.727-0.727-1.453-1.091c-0.727-0.728-1.09-1.09-1.816-1.453
				c-0.728-0.363-0.728-0.727-0.728-1.091c0-0.363,0.728-0.726,1.817-0.726c2.543,0,4.36,1.453,5.451,2.906
				c1.09,1.817,2.544,3.634,4.36,4.724c1.09,0.728,2.18,1.091,3.27,1.091c1.818,0,3.271-0.363,5.087-0.727
				c0.728-2.181,1.817-4.36,3.998-5.452C38.561,76.031,32.02,71.307,32.02,58.589c0-4.724,1.455-9.084,4.361-12.355
				c-0.727-1.817-0.727-3.27-0.727-5.087c0-2.543,0.727-4.724,1.816-6.541c4.725,0,7.631,1.454,12.354,5.087
				c3.271-0.727,6.541-1.09,10.538-1.09c3.271,0,6.541,0.363,9.447,1.09c4.725-3.27,7.632-4.724,12.354-4.724
				c1.092,2.18,1.817,4.36,1.817,6.541c0,1.817-0.363,3.271-0.726,5.087c2.906,3.271,4.36,7.268,4.36,12.354
				c0,12.719-6.541,17.806-19.986,18.896c2.907,1.816,4.361,4.724,4.361,7.994v17.442H48.008z"/>
			<path id="_x3C_Path_x3E_" fill="#9B59B6" d="M53.823,15.347C32.747,17.891,15.668,34.97,13.124,56.045
				c-3.996,30.886,22.167,57.049,53.053,53.053c21.076-2.544,38.155-19.623,40.699-40.699
				C110.872,37.513,84.709,11.35,53.823,15.347z M99.245,69.127c-2.544,16.715-15.988,29.797-32.704,32.703
				c-27.254,4.36-50.509-18.895-46.148-46.148c2.543-16.715,15.988-29.797,32.703-32.704C80.713,18.254,103.968,41.51,99.245,69.127
				z"/>
		</g>
	</g>
</g>
<g id="Capa_8">
</g>
<g id="Capa_9">
</g>
<g id="Capa_10">
</g>
<g id="Capa_11">
</g>
</svg>
