<?xml version="1.0" encoding="utf-8"?>
<!-- Generator: Adobe Illustrator 16.0.3, SVG Export Plug-In . SVG Version: 6.00 Build 0)  -->
<!DOCTYPE svg PUBLIC "-//W3C//DTD SVG 1.1//EN" "http://www.w3.org/Graphics/SVG/1.1/DTD/svg11.dtd">
<svg version="1.1" xmlns="http://www.w3.org/2000/svg" xmlns:xlink="http://www.w3.org/1999/xlink" x="0px" y="0px" width="120px"
	 height="120px" viewBox="0 0 120 120" enable-background="new 0 0 120 120" xml:space="preserve">
<g id="Capa_1">
</g>
<g id="Capa_2">
</g>
<g id="Capa_3">
</g>
<g id="Capa_4">
</g>
<g id="Capa_5">
</g>
<g id="Capa_6">
	<path fill="#FF7262" d="M120,108c0,6.627-5.373,12-12,12H12c-6.627,0-12-5.373-12-12V12C0,5.373,5.373,0,12,0h96
		c6.627,0,12,5.373,12,12V108z"/>
	<path fill="#DD4C35" d="M106.507,55.695L64.305,13.494c-2.422-2.431-6.357-2.438-8.788-0.016c-0.005,0.005-0.01,0.01-0.016,0.016
		l-8.764,8.764l11.115,11.116c3.864-1.315,8.063,0.752,9.378,4.616c0.531,1.56,0.525,3.252-0.016,4.809L77.916,53.5
		c3.863-1.328,8.072,0.729,9.4,4.593c1.327,3.864-0.729,8.072-4.594,9.4c-3.863,1.328-8.072-0.729-9.399-4.593
		c-0.585-1.703-0.529-3.56,0.157-5.224l-9.994-9.993v26.294c3.658,1.812,5.153,6.246,3.342,9.903
		c-1.813,3.658-6.247,5.154-9.904,3.343c-3.658-1.813-5.154-6.247-3.342-9.904c0.798-1.61,2.153-2.874,3.814-3.557V47.228
		c-3.785-1.553-5.595-5.881-4.042-9.666c0.007-0.017,0.014-0.032,0.021-0.049l-10.943-10.95L13.494,55.512
		c-2.432,2.421-2.44,6.356-0.019,8.787c0.006,0.008,0.012,0.014,0.019,0.02l42.201,42.188c2.423,2.431,6.357,2.437,8.788,0.015
		c0.005-0.005,0.011-0.011,0.017-0.015l42.008-42.02c2.432-2.421,2.439-6.355,0.019-8.787c-0.007-0.006-0.014-0.013-0.019-0.019"/>
	<path fill="#FFFFFF" d="M46.737,22.258l11.115,11.116c3.864-1.315,8.063,0.752,9.378,4.616c0.531,1.56,0.525,3.252-0.016,4.809
		L77.916,53.5c3.863-1.328,8.072,0.729,9.4,4.593c1.327,3.864-0.729,8.072-4.594,9.4c-3.863,1.328-8.072-0.729-9.399-4.593
		c-0.585-1.703-0.529-3.56,0.157-5.224l-9.994-9.993v26.294c3.658,1.812,5.153,6.246,3.342,9.903
		c-1.813,3.658-6.247,5.154-9.904,3.343c-3.658-1.813-5.154-6.247-3.342-9.904c0.798-1.61,2.153-2.874,3.814-3.557V47.228
		c-3.785-1.553-5.595-5.881-4.042-9.666c0.007-0.017,0.014-0.032,0.021-0.049l-10.943-10.95"/>
</g>
<g id="Capa_7">
</g>
<g id="Capa_8">
</g>
<g id="Capa_9">
</g>
<g id="Capa_10">
</g>
<g id="Capa_11">
</g>
</svg>
