<?xml version="1.0" encoding="utf-8"?>
<!-- Generator: Adobe Illustrator 16.0.3, SVG Export Plug-In . SVG Version: 6.00 Build 0)  -->
<!DOCTYPE svg PUBLIC "-//W3C//DTD SVG 1.1//EN" "http://www.w3.org/Graphics/SVG/1.1/DTD/svg11.dtd">
<svg version="1.1" xmlns="http://www.w3.org/2000/svg" xmlns:xlink="http://www.w3.org/1999/xlink" x="0px" y="0px" width="120px"
	 height="120px" viewBox="0 0 120 120" enable-background="new 0 0 120 120" xml:space="preserve">
<g id="Capa_1">
</g>
<g id="Capa_2">
</g>
<g id="Capa_3">
</g>
<g id="Capa_4">
</g>
<g id="Capa_5">
</g>
<g id="Capa_6">
</g>
<g id="Capa_7">
</g>
<g id="Capa_8">
</g>
<g id="Capa_9">
</g>
<g id="Capa_10">
	<path fill="#007AC2" d="M120,108c0,6.627-5.373,12-12,12H12c-6.627,0-12-5.373-12-12V12C0,5.373,5.373,0,12,0h96
		c6.627,0,12,5.373,12,12V108z"/>
	<g id="Trello_1_">
		<rect x="-1.2" y="-1.2" fill="none" width="122.4" height="122.4"/>
		<path fill="#F9F9F9" d="M69.65,27.798v38.249c0,4.227,3.423,7.65,7.649,7.65h22.95c4.227,0,7.65-3.424,7.65-7.65V27.798
			c0-4.227-3.424-7.65-7.65-7.65H77.3C73.073,20.148,69.65,23.571,69.65,27.798z"/>
		<path fill="#F9F9F9" d="M16.1,27.798v68.849c0,4.227,3.424,7.65,7.65,7.65H46.7c4.227,0,7.649-3.424,7.649-7.65V27.798
			c0-4.227-3.423-7.65-7.649-7.65H23.75C19.523,20.148,16.1,23.571,16.1,27.798z"/>
	</g>
</g>
<g id="Capa_11">
</g>
</svg>
