<?xml version="1.0" encoding="utf-8"?>
<!-- Generator: Adobe Illustrator 16.0.3, SVG Export Plug-In . SVG Version: 6.00 Build 0)  -->
<!DOCTYPE svg PUBLIC "-//W3C//DTD SVG 1.1//EN" "http://www.w3.org/Graphics/SVG/1.1/DTD/svg11.dtd">
<svg version="1.1" xmlns="http://www.w3.org/2000/svg" xmlns:xlink="http://www.w3.org/1999/xlink" x="0px" y="0px" width="120px"
	 height="120px" viewBox="0 0 120 120" enable-background="new 0 0 120 120" xml:space="preserve">
<g id="Capa_1">
	<path fill="#EEC63A" d="M0,12C0,5.373,5.373,0,12,0h96c6.627,0,12,5.373,12,12v96c0,6.627-5.373,12-12,12H12
		c-6.627,0-12-5.373-12-12V12z"/>
	<path d="M110.154,91.388c-0.877-5.489-4.466-10.081-15.05-14.374c-3.677-1.717-7.791-2.93-9.005-5.705
		c-0.448-1.641-0.529-2.538-0.235-3.516c0.763-3.244,4.58-4.2,7.596-3.3c1.956,0.604,3.758,2.088,4.888,4.493
		c5.189-3.38,5.189-3.38,8.792-5.625c-1.35-2.091-2.015-3.01-2.936-3.889c-3.152-3.534-7.358-5.332-14.188-5.171l-3.545,0.447
		c-3.387,0.82-6.613,2.619-8.572,5.024c-5.696,6.446-4.051,17.696,2.855,22.361c6.833,5.098,16.833,6.211,18.125,11.02
		c1.196,5.862-4.363,7.737-9.864,7.05c-4.052-0.901-6.301-2.93-8.789-6.68l-9.16,5.255c1.035,2.405,2.25,3.438,4.051,5.548
		c8.708,8.771,30.51,8.32,34.422-5.024c0.136-0.446,1.197-3.534,0.375-8.239L110.154,91.388z M65.137,55.155H53.886
		c0,9.687-0.061,19.317-0.061,29.025c0,6.152,0.312,11.817-0.684,13.554c-1.665,3.442-5.912,3.01-7.85,2.406
		c-1.978-0.979-2.997-2.326-4.149-4.281c-0.335-0.527-0.568-0.975-0.647-0.975l-9.138,5.625c1.525,3.15,3.758,5.863,6.635,7.581
		c4.288,2.556,10.042,3.376,16.07,2.032c3.916-1.131,7.301-3.461,9.057-7.049c2.565-4.651,2.018-10.35,1.996-16.744
		c0.063-10.271,0-20.544,0-30.896L65.137,55.155z"/>
</g>
<g id="Capa_2">
</g>
<g id="Capa_3">
</g>
<g id="Capa_4">
</g>
<g id="Capa_5">
</g>
<g id="Capa_6">
</g>
<g id="Capa_7">
</g>
<g id="Capa_8">
</g>
<g id="Capa_9">
</g>
<g id="Capa_10">
</g>
<g id="Capa_11">
</g>
</svg>
