<?xml version="1.0" encoding="utf-8"?>
<!-- Generator: Adobe Illustrator 16.0.3, SVG Export Plug-In . SVG Version: 6.00 Build 0)  -->
<!DOCTYPE svg PUBLIC "-//W3C//DTD SVG 1.1//EN" "http://www.w3.org/Graphics/SVG/1.1/DTD/svg11.dtd">
<svg version="1.1" xmlns="http://www.w3.org/2000/svg" xmlns:xlink="http://www.w3.org/1999/xlink" x="0px" y="0px" width="120px"
	 height="120px" viewBox="0 0 120 120" enable-background="new 0 0 120 120" xml:space="preserve">
<g id="Capa_1">
</g>
<g id="Capa_2">
</g>
<g id="Capa_3">
</g>
<g id="Capa_4">
</g>
<g id="Capa_5">
</g>
<g id="Capa_6">
</g>
<g id="Capa_7">
</g>
<g id="Capa_8">
</g>
<g id="Capa_9">
</g>
<g id="Capa_10">
</g>
<g id="Capa_11">
	<path fill="#DBDBDB" d="M120,108c0,6.627-5.373,12-12,12H12c-6.627,0-12-5.373-12-12V12C0,5.373,5.373,0,12,0h96
		c6.627,0,12,5.373,12,12V108z"/>
	<g>
		<path fill="#00D8FF" d="M109.572,60.616c0-6.567-8.222-12.788-20.833-16.652c2.914-12.853,1.614-23.076-4.082-26.352
			c-1.315-0.766-2.848-1.129-4.526-1.129v4.51c0.928,0,1.679,0.186,2.307,0.525c2.752,1.573,3.938,7.576,3.011,15.297
			c-0.227,1.896-0.59,3.897-1.033,5.938c-3.962-0.968-8.286-1.719-12.829-2.203c-2.727-3.735-5.56-7.132-8.407-10.101
			c6.584-6.132,12.765-9.48,16.968-9.48v-4.51l0,0c-5.559,0-12.829,3.961-20.187,10.836c-7.358-6.834-14.629-10.755-20.188-10.755
			v4.51c4.18,0,10.384,3.333,16.976,9.416c-2.832,2.97-5.655,6.342-8.342,10.085c-4.567,0.484-8.892,1.235-12.853,2.219
			c-0.469-2.017-0.808-3.978-1.05-5.858c-0.952-7.721,0.227-13.724,2.953-15.322c0.604-0.363,1.396-0.524,2.324-0.524v-4.502l0,0
			c-1.695,0-3.235,0.363-4.567,1.13c-5.68,3.275-6.955,13.482-4.019,26.294C18.609,47.86,10.428,54.065,10.428,60.616
			c0,6.567,8.223,12.789,20.833,16.653c-2.913,12.853-1.613,23.075,4.082,26.352c1.315,0.766,2.848,1.129,4.552,1.129
			c5.558,0,12.828-3.961,20.187-10.835c7.358,6.833,14.628,10.754,20.187,10.754c1.694,0,3.236-0.362,4.566-1.129
			c5.68-3.275,6.955-13.482,4.019-26.295C101.391,73.389,109.572,67.159,109.572,60.616L109.572,60.616z M69.214,60.616
			c0-5.099-4.131-9.238-9.238-9.238c-5.099,0-9.238,4.131-9.238,9.238c0,5.107,4.132,9.238,9.238,9.238
			C65.083,69.847,69.214,65.715,69.214,60.616L69.214,60.616z M39.748,16.539L39.748,16.539L39.748,16.539L39.748,16.539z
			 M83.261,47.134c-0.75,2.606-1.678,5.293-2.727,7.979c-0.832-1.613-1.694-3.235-2.646-4.849c-0.929-1.614-1.921-3.195-2.913-4.728
			C77.847,45.964,80.615,46.489,83.261,47.134L83.261,47.134z M74.006,68.66c-1.573,2.728-3.194,5.317-4.873,7.722
			c-3.009,0.267-6.06,0.403-9.133,0.403c-3.05,0-6.1-0.145-9.092-0.387c-1.679-2.404-3.317-4.971-4.891-7.682
			c-1.533-2.646-2.929-5.332-4.204-8.044c1.251-2.711,2.671-5.414,4.181-8.06c1.573-2.728,3.194-5.317,4.873-7.722
			c3.009-0.267,6.06-0.404,9.133-0.404c3.05,0,6.1,0.145,9.093,0.387c1.679,2.404,3.316,4.97,4.89,7.681
			c1.534,2.646,2.929,5.333,4.204,8.044C76.911,63.304,75.524,66.006,74.006,68.66L74.006,68.66z M80.534,66.03
			c1.089,2.711,2.017,5.414,2.791,8.044c-2.646,0.646-5.438,1.194-8.326,1.614c0.992-1.558,1.978-3.154,2.913-4.793
			C78.831,69.282,79.702,67.644,80.534,66.03L80.534,66.03z M60.04,87.59c-1.88-1.938-3.76-4.099-5.615-6.464
			c1.815,0.08,3.68,0.146,5.56,0.146c1.896,0,3.775-0.04,5.615-0.146C63.776,83.491,61.896,85.652,60.04,87.59L60.04,87.59z
			 M45.009,75.688c-2.872-0.428-5.64-0.953-8.286-1.598c0.751-2.606,1.679-5.293,2.728-7.98c0.831,1.614,1.694,3.235,2.646,4.85
			C43.049,72.582,44.018,74.155,45.009,75.688L45.009,75.688z M59.935,33.636c1.881,1.936,3.762,4.098,5.616,6.462
			c-1.814-0.081-3.68-0.146-5.559-0.146c-1.896,0-3.776,0.041-5.615,0.146C56.199,37.734,58.08,35.572,59.935,33.636L59.935,33.636z
			 M44.984,45.537c-0.992,1.557-1.977,3.154-2.912,4.792c-0.928,1.614-1.799,3.235-2.631,4.849
			c-1.089-2.711-2.017-5.414-2.791-8.044C39.305,46.505,42.096,45.964,44.984,45.537L44.984,45.537z M26.694,70.839
			c-7.157-3.05-11.78-7.051-11.78-10.222c0-3.171,4.631-7.197,11.78-10.223c1.733-0.75,3.639-1.412,5.599-2.041
			c1.154,3.961,2.671,8.084,4.551,12.304c-1.855,4.204-3.355,8.302-4.485,12.247C30.357,72.275,28.452,71.589,26.694,70.839
			L26.694,70.839z M37.57,99.716c-2.752-1.573-3.938-7.576-3.01-15.298c0.227-1.896,0.589-3.896,1.033-5.938
			c3.961,0.969,8.285,1.72,12.828,2.203c2.728,3.735,5.56,7.132,8.407,10.102c-6.592,6.123-12.771,9.48-16.976,9.48
			C38.941,100.239,38.175,100.063,37.57,99.716L37.57,99.716z M85.504,84.321c0.952,7.722-0.226,13.725-2.953,15.322
			c-0.604,0.363-1.396,0.524-2.323,0.524c-4.18,0-10.384-3.332-16.976-9.415c2.832-2.97,5.656-6.344,8.342-10.086
			c4.567-0.484,8.892-1.235,12.854-2.228C84.915,80.48,85.278,82.441,85.504,84.321L85.504,84.321z M93.282,70.839
			c-1.734,0.75-3.639,1.412-5.601,2.041c-1.152-3.961-2.67-8.084-4.55-12.304c1.855-4.204,3.356-8.302,4.487-12.248
			c2,0.629,3.896,1.315,5.679,2.057c7.157,3.05,11.779,7.052,11.779,10.223C105.062,63.788,100.438,67.806,93.282,70.839
			L93.282,70.839z"/>
	</g>
</g>
</svg>
