<?xml version="1.0" encoding="utf-8"?>
<!-- Generator: Adobe Illustrator 16.0.3, SVG Export Plug-In . SVG Version: 6.00 Build 0)  -->
<!DOCTYPE svg PUBLIC "-//W3C//DTD SVG 1.1//EN" "http://www.w3.org/Graphics/SVG/1.1/DTD/svg11.dtd">
<svg version="1.1" xmlns="http://www.w3.org/2000/svg" xmlns:xlink="http://www.w3.org/1999/xlink" x="0px" y="0px" width="120px"
	 height="120px" viewBox="0 0 120 120" enable-background="new 0 0 120 120" xml:space="preserve">
<g id="Capa_1">
</g>
<g id="Capa_2">
</g>
<g id="Capa_3">
</g>
<g id="Capa_4">
</g>
<g id="Capa_5">
</g>
<g id="Capa_6">
</g>
<g id="Capa_7">
</g>
<g id="Capa_8">
</g>
<g id="Capa_9">
	<path fill="#46B3E1" d="M120,108c0,6.627-5.373,12-12,12H12c-6.627,0-12-5.373-12-12V12C0,5.373,5.373,0,12,0h96
		c6.627,0,12,5.373,12,12V108z"/>
	<polygon fill="#1572B6" points="26.203,102.321 18.687,17.977 101.313,17.977 93.787,102.308 59.949,111.689 	"/>
	<polygon fill="#33A9DC" points="60,104.521 87.344,96.939 93.776,24.875 60,24.875 	"/>
	<polygon fill="#FFFFFF" points="60,55.432 73.689,55.432 74.633,44.838 60,44.838 60,34.494 60.037,34.494 85.938,34.494 
		85.69,37.268 83.15,65.776 60,65.776 	"/>
	<polygon fill="#EBEBEB" points="60.063,82.297 60.017,82.311 48.496,79.198 47.761,70.948 42.161,70.948 37.375,70.948 
		38.824,87.19 60.014,93.073 60.063,93.061 	"/>
	<polygon fill="#FFFFFF" points="72.809,65.338 71.563,79.19 60.026,82.304 60.026,93.067 81.232,87.19 81.39,85.442 83.188,65.338 
			"/>
	<polygon fill="#EBEBEB" points="60.037,34.494 60.037,40.919 60.037,44.812 60.037,44.838 35.082,44.838 35.082,44.838 
		35.049,44.838 34.842,42.513 34.369,37.268 34.122,34.494 	"/>
	<polygon fill="#EBEBEB" points="60,55.432 60,61.857 60,65.75 60,65.776 48.658,65.776 48.658,65.776 48.624,65.776 48.417,63.451 
		47.948,58.206 47.7,55.432 	"/>
</g>
<g id="Capa_10">
</g>
<g id="Capa_11">
</g>
</svg>
