<?xml version="1.0" encoding="utf-8"?>
<!-- Generator: Adobe Illustrator 16.0.3, SVG Export Plug-In . SVG Version: 6.00 Build 0)  -->
<!DOCTYPE svg PUBLIC "-//W3C//DTD SVG 1.1//EN" "http://www.w3.org/Graphics/SVG/1.1/DTD/svg11.dtd">
<svg version="1.1" xmlns="http://www.w3.org/2000/svg" xmlns:xlink="http://www.w3.org/1999/xlink" x="0px" y="0px" width="120px"
	 height="120px" viewBox="0 0 120 120" enable-background="new 0 0 120 120" xml:space="preserve">
<g id="Capa_1">
</g>
<g id="Capa_2">
</g>
<g id="Capa_3">
</g>
<g id="Capa_4">
</g>
<g id="Capa_5">
	<path fill="#262626" d="M120,108c0,6.627-5.373,12-12,12H12c-6.627,0-12-5.373-12-12V12C0,5.373,5.373,0,12,0h96
		c6.627,0,12,5.373,12,12V108z"/>
	<g>
		<path fill="#0ACF83" d="M47.19,102.107c7.069,0,12.8-5.73,12.8-12.8V76.506h-12.8c-7.069,0-12.8,5.732-12.8,12.802
			S40.121,102.107,47.19,102.107z"/>
		<path fill="#A259FF" d="M34.39,63.707c0-7.069,5.731-12.8,12.8-12.8h12.8v25.599h-12.8C40.121,76.506,34.39,70.775,34.39,63.707z"
			/>
		<path fill="#F24E1E" d="M34.39,38.107c0-7.065,5.725-12.794,12.791-12.8h12.8v25.6H47.19C40.121,50.907,34.39,45.176,34.39,38.107
			z"/>
		<path fill="#FF7262" d="M59.99,25.307h12.8c7.07,0,12.8,5.73,12.8,12.8s-5.73,12.8-12.8,12.8h-12.8V25.307z"/>
		<path fill="#1ABCFE" d="M85.59,63.707c0,7.068-5.73,12.799-12.8,12.799c-7.069,0-12.8-5.73-12.8-12.799
			c0-7.069,5.731-12.8,12.8-12.8C79.86,50.907,85.59,56.638,85.59,63.707z"/>
	</g>
</g>
<g id="Capa_6">
</g>
<g id="Capa_7">
</g>
<g id="Capa_8">
</g>
<g id="Capa_9">
</g>
<g id="Capa_10">
</g>
<g id="Capa_11">
</g>
</svg>
