<?xml version="1.0" encoding="utf-8"?>
<!-- Generator: Adobe Illustrator 16.0.3, SVG Export Plug-In . SVG Version: 6.00 Build 0)  -->
<!DOCTYPE svg PUBLIC "-//W3C//DTD SVG 1.1//EN" "http://www.w3.org/Graphics/SVG/1.1/DTD/svg11.dtd">
<svg version="1.1" xmlns="http://www.w3.org/2000/svg" xmlns:xlink="http://www.w3.org/1999/xlink" x="0px" y="0px" width="120px"
	 height="120px" viewBox="0 0 120 120" enable-background="new 0 0 120 120" xml:space="preserve">
<g id="Capa_1">
</g>
<g id="Capa_2">
</g>
<g id="Capa_3">
</g>
<g id="Capa_4">
</g>
<g id="Capa_5">
</g>
<g id="Capa_6">
</g>
<g id="Capa_7">
</g>
<g id="Capa_8">
	<path fill="#F4733B" d="M120,108c0,6.627-5.373,12-12,12H12c-6.627,0-12-5.373-12-12V12C0,5.373,5.373,0,12,0h96
		c6.627,0,12,5.373,12,12V108z"/>
	<polygon fill="#E44F26" points="26.166,100.654 18.646,16.31 101.28,16.31 93.75,100.641 59.912,110.023 	"/>
	<polygon fill="#F1662A" points="59.963,102.854 87.307,95.273 93.739,23.208 59.963,23.208 	"/>
	<polygon fill="#EBEBEB" points="59.963,54.488 46.274,54.488 45.331,43.895 59.963,43.895 59.963,33.55 59.926,33.55 34.024,33.55 
		34.272,36.328 36.813,64.832 59.963,64.832 	"/>
	<polygon fill="#EBEBEB" points="59.963,81.354 59.916,81.367 48.396,78.258 47.659,70.008 42.061,70.008 37.274,70.008 
		38.724,86.246 59.916,92.131 59.963,92.117 	"/>
	<polygon fill="#FFFFFF" points="59.926,54.488 59.926,64.832 72.664,64.832 71.467,78.25 59.926,81.363 59.926,92.127 
		81.135,86.246 81.289,84.5 83.719,57.266 83.974,54.488 81.186,54.488 	"/>
	<polygon fill="#FFFFFF" points="59.926,33.55 59.926,39.976 59.926,43.872 59.926,43.895 84.881,43.895 84.881,43.895 
		84.914,43.895 85.121,41.572 85.594,36.328 85.841,33.55 	"/>
</g>
<g id="Capa_9">
</g>
<g id="Capa_10">
</g>
<g id="Capa_11">
</g>
</svg>
