<?xml version="1.0" encoding="utf-8"?>
<!-- Generator: Adobe Illustrator 16.0.3, SVG Export Plug-In . SVG Version: 6.00 Build 0)  -->
<!DOCTYPE svg PUBLIC "-//W3C//DTD SVG 1.1//EN" "http://www.w3.org/Graphics/SVG/1.1/DTD/svg11.dtd">
<svg version="1.1" xmlns="http://www.w3.org/2000/svg" xmlns:xlink="http://www.w3.org/1999/xlink" x="0px" y="0px" width="120px"
	 height="120px" viewBox="0 0 120 120" enable-background="new 0 0 120 120" xml:space="preserve">
<g id="Capa_1">
</g>
<g id="Capa_2">
	<path fill="#E8E9EB" d="M0,12C0,5.373,5.373,0,12,0h96c6.627,0,12,5.373,12,12v96c0,6.627-5.373,12-12,12H12
		c-6.627,0-12-5.373-12-12V12z"/>
	<g>
		<path fill="#39CEFD" d="M44.49,80.217l13.784,13.893l37.925-38.222H68.623L44.49,80.217z"/>
		<path fill="#39CEFD" d="M68.623,14.188h27.576L37.595,73.267L23.801,59.37L68.623,14.188z"/>
		<path fill="#03569B" d="M58.274,94.109l10.349,10.42h27.576L72.065,80.217L58.274,94.109z"/>
		<path fill="#16B9FD" d="M44.49,80.212l13.792-13.909l13.794,13.901L58.281,94.109L44.49,80.212z"/>
	</g>
</g>
<g id="Capa_3">
</g>
<g id="Capa_4">
</g>
<g id="Capa_5">
</g>
<g id="Capa_6">
</g>
<g id="Capa_7">
</g>
<g id="Capa_8">
</g>
<g id="Capa_9">
</g>
<g id="Capa_10">
</g>
<g id="Capa_11">
</g>
</svg>
