<?xml version="1.0" encoding="utf-8"?>
<!-- Generator: Adobe Illustrator 16.0.3, SVG Export Plug-In . SVG Version: 6.00 Build 0)  -->
<!DOCTYPE svg PUBLIC "-//W3C//DTD SVG 1.1//EN" "http://www.w3.org/Graphics/SVG/1.1/DTD/svg11.dtd">
<svg version="1.1" xmlns="http://www.w3.org/2000/svg" xmlns:xlink="http://www.w3.org/1999/xlink" x="0px" y="0px" width="120px"
	 height="120px" viewBox="0 0 120 120" enable-background="new 0 0 120 120" xml:space="preserve">
<g id="Capa_1">
</g>
<g id="Capa_2">
</g>
<g id="Capa_12">
	<path fill="#1F608C" d="M120,108c0,6.627-5.373,12-12,12H12c-6.627,0-12-5.373-12-12V12C0,5.373,5.373,0,12,0h96
		c6.627,0,12,5.373,12,12V108z"/>
	
		<linearGradient id="SVGID_1_" gradientUnits="userSpaceOnUse" x1="-1353.3003" y1="1963.918" x2="-1353.2979" y2="1963.9155" gradientTransform="matrix(20130.918 0 0 -20176.627 27243206 39625256)">
		<stop  offset="0" style="stop-color:#387EB8"/>
		<stop  offset="1" style="stop-color:#366994"/>
	</linearGradient>
	<path fill="url(#SVGID_1_)" d="M59.604,12.127c-24.453,0-22.906,10.574-22.906,10.574v10.986h23.254v3.444H27.436
		c0,0-15.654-1.929-15.654,22.886c0,24.815,13.822,23.805,13.822,23.805h7.979V72.247c0,0-0.448-13.821,13.432-13.821h23.289
		c0,0,12.991,0.207,12.991-12.578V24.87c0,0,1.97-12.784-23.564-12.784l0,0L59.604,12.127z M46.75,19.487
		c2.309-0.058,4.227,1.766,4.285,4.075c0.059,2.308-1.766,4.227-4.074,4.285c-2.309,0.058-4.228-1.767-4.286-4.075c0,0,0,0,0,0
		v-0.069c0-2.309,1.872-4.181,4.182-4.181l0,0l0,0L46.75,19.487z"/>
	
		<linearGradient id="SVGID_2_" gradientUnits="userSpaceOnUse" x1="-1353.6489" y1="1964.2539" x2="-1353.6464" y2="1964.2516" gradientTransform="matrix(20130.918 0 0 -20176.627 27250222 39632088)">
		<stop  offset="0" style="stop-color:#FFE052"/>
		<stop  offset="1" style="stop-color:#FFC331"/>
	</linearGradient>
	<path fill="url(#SVGID_2_)" d="M60.292,107.908c24.453,0,22.907-10.608,22.907-10.608V86.347H59.948v-3.443h32.616
		c0,0,15.653,1.749,15.653-22.921c0-24.669-13.822-23.805-13.822-23.805h-8.083v11.424c0,0,0.448,13.821-13.432,13.821H49.582
		c0,0-13.001-0.196-13.001,12.589V95.13c0,0-1.97,12.784,23.564,12.784h0.138L60.292,107.908z M73.146,100.513
		c-2.308,0.059-4.228-1.766-4.285-4.074c-0.059-2.309,1.766-4.227,4.074-4.285s4.228,1.767,4.285,4.074v0.001v0.103
		c0,2.31-1.873,4.182-4.181,4.182l0,0h0.104H73.146z"/>
</g>
<g id="Capa_4">
</g>
<g id="Capa_5">
</g>
<g id="Capa_6">
</g>
<g id="Capa_7">
</g>
<g id="Capa_8">
</g>
<g id="Capa_9">
</g>
<g id="Capa_10">
</g>
<g id="Capa_11">
</g>
</svg>
