<?xml version="1.0" encoding="utf-8"?>
<!-- Generator: Adobe Illustrator 16.0.3, SVG Export Plug-In . SVG Version: 6.00 Build 0)  -->
<!DOCTYPE svg PUBLIC "-//W3C//DTD SVG 1.1//EN" "http://www.w3.org/Graphics/SVG/1.1/DTD/svg11.dtd">
<svg version="1.1" xmlns="http://www.w3.org/2000/svg" xmlns:xlink="http://www.w3.org/1999/xlink" x="0px" y="0px" width="120px"
	 height="120px" viewBox="0 0 120 120" enable-background="new 0 0 120 120" xml:space="preserve">
<g id="Capa_1">
</g>
<g id="Capa_2">
</g>
<g id="Capa_3">
</g>
<g id="Capa_4">
	<path fill="#F5F5F5" d="M120,108c0,6.627-5.373,12-12,12H12c-6.627,0-12-5.373-12-12V12C0,5.373,5.373,0,12,0h96
		c6.627,0,12,5.373,12,12V108z"/>
	<g>
		<path fill="#0074BD" d="M48.07,84.846c0,0-3.472,2.02,2.474,2.701c7.204,0.822,10.884,0.704,18.819-0.797
			c0,0,2.09,1.31,5.005,2.442C56.572,96.816,34.094,88.75,48.07,84.846L48.07,84.846z M45.894,74.895c0,0-3.894,2.883,2.056,3.5
			c7.694,0.793,13.77,0.857,24.287-1.166c0,0,1.451,1.475,3.737,2.28C54.463,85.799,30.503,80.003,45.894,74.895L45.894,74.895z"/>
		<path fill="#EA2D2E" d="M64.225,58.013c4.387,5.05-1.151,9.59-1.151,9.59s11.133-5.745,6.022-12.944
			c-4.777-6.71-8.438-10.043,11.384-21.539C80.48,33.119,49.365,40.888,64.225,58.013L64.225,58.013z"/>
		<path fill="#0074BD" d="M87.76,92.207c0,0,2.57,2.119-2.831,3.756c-10.268,3.109-42.748,4.05-51.769,0.125
			c-3.241-1.411,2.839-3.368,4.752-3.781c1.995-0.432,3.133-0.354,3.133-0.354c-3.606-2.539-23.311,4.989-10.007,7.148
			C67.316,104.981,97.168,96.451,87.76,92.207L87.76,92.207z M49.742,64.583c0,0-16.52,3.924-5.85,5.351
			c4.506,0.603,13.485,0.465,21.854-0.237c6.837-0.574,13.699-1.801,13.699-1.801s-2.409,1.033-4.153,2.223
			c-16.779,4.413-49.184,2.357-39.854-2.154C43.324,64.148,49.742,64.583,49.742,64.583L49.742,64.583z M79.376,81.146
			c17.054-8.858,9.168-17.372,3.664-16.226c-1.346,0.28-1.949,0.524-1.949,0.524s0.501-0.786,1.457-1.125
			c10.888-3.826,19.261,11.29-3.513,17.276C79.035,81.595,79.297,81.357,79.376,81.146z"/>
		<path fill="#EA2D2E" d="M69.096,14.553c0,0,9.442,9.448-8.96,23.973c-14.757,11.655-3.364,18.298-0.004,25.894
			c-8.615-7.773-14.934-14.615-10.695-20.983C55.661,34.092,72.904,29.559,69.096,14.553L69.096,14.553z"/>
		<path fill="#0074BD" d="M51.418,105.161c16.366,1.048,41.505-0.582,42.101-8.326c0,0-1.145,2.936-13.528,5.265
			c-13.97,2.631-31.205,2.324-41.423,0.638C38.568,102.737,40.661,104.47,51.418,105.161L51.418,105.161z"/>
	</g>
</g>
<g id="Capa_5">
</g>
<g id="Capa_6">
</g>
<g id="Capa_7">
</g>
<g id="Capa_8">
</g>
<g id="Capa_9">
</g>
<g id="Capa_10">
</g>
<g id="Capa_11">
</g>
</svg>
